<svg id="visual" viewBox="0 0 900 600" width="900" height="600" xmlns="http://www.w3.org/2000/svg" xmlns:xlink="http://www.w3.org/1999/xlink" version="1.1"><rect x="0" y="0" width="900" height="600" fill="#090318"></rect><defs><linearGradient id="grad1_0" x1="33.3%" y1="0%" x2="100%" y2="100%"><stop offset="20%" stop-color="#090318" stop-opacity="1"></stop><stop offset="80%" stop-color="#090318" stop-opacity="1"></stop></linearGradient></defs><defs><linearGradient id="grad2_0" x1="0%" y1="0%" x2="66.7%" y2="100%"><stop offset="20%" stop-color="#090318" stop-opacity="1"></stop><stop offset="80%" stop-color="#090318" stop-opacity="1"></stop></linearGradient></defs><g transform="translate(900, 0)"><path d="M0 216.3C-43.2 213.8 -86.4 211.2 -108.2 187.3C-129.9 163.5 -130.2 118.3 -144.6 83.5C-159.1 48.7 -187.7 24.4 -216.3 0L0 0Z" fill="#4c0080"></path></g><g transform="translate(0, 600)"><path d="M0 -216.3C23.8 -186.8 47.7 -157.2 82.5 -142.9C117.3 -128.6 163.2 -129.4 187.3 -108.2C211.5 -86.9 213.9 -43.4 216.3 0L0 0Z" fill="#4c0080"></path></g></svg>