<svg id="visual" viewBox="0 0 900 600" width="900" height="600" xmlns="http://www.w3.org/2000/svg" xmlns:xlink="http://www.w3.org/1999/xlink" version="1.1"><rect x="0" y="0" width="900" height="600" fill="#090318"></rect><path d="M0 397L18.8 395.7C37.7 394.3 75.3 391.7 112.8 395C150.3 398.3 187.7 407.7 225.2 406.3C262.7 405 300.3 393 337.8 390.5C375.3 388 412.7 395 450.2 401C487.7 407 525.3 412 562.8 412.7C600.3 413.3 637.7 409.7 675.2 406C712.7 402.3 750.3 398.7 787.8 392.2C825.3 385.7 862.7 376.3 881.3 371.7L900 367L900 601L881.3 601C862.7 601 825.3 601 787.8 601C750.3 601 712.7 601 675.2 601C637.7 601 600.3 601 562.8 601C525.3 601 487.7 601 450.2 601C412.7 601 375.3 601 337.8 601C300.3 601 262.7 601 225.2 601C187.7 601 150.3 601 112.8 601C75.3 601 37.7 601 18.8 601L0 601Z" fill="#4c0080"></path><path d="M0 396L18.8 404C37.7 412 75.3 428 112.8 428.2C150.3 428.3 187.7 412.7 225.2 405.3C262.7 398 300.3 399 337.8 406C375.3 413 412.7 426 450.2 431.5C487.7 437 525.3 435 562.8 433.7C600.3 432.3 637.7 431.7 675.2 431.3C712.7 431 750.3 431 787.8 426.3C825.3 421.7 862.7 412.3 881.3 407.7L900 403L900 601L881.3 601C862.7 601 825.3 601 787.8 601C750.3 601 712.7 601 675.2 601C637.7 601 600.3 601 562.8 601C525.3 601 487.7 601 450.2 601C412.7 601 375.3 601 337.8 601C300.3 601 262.7 601 225.2 601C187.7 601 150.3 601 112.8 601C75.3 601 37.7 601 18.8 601L0 601Z" fill="#6d0088"></path><path d="M0 451L18.8 447.8C37.7 444.7 75.3 438.3 112.8 436.2C150.3 434 187.7 436 225.2 441.2C262.7 446.3 300.3 454.7 337.8 459.8C375.3 465 412.7 467 450.2 462.3C487.7 457.7 525.3 446.3 562.8 446.5C600.3 446.7 637.7 458.3 675.2 462.2C712.7 466 750.3 462 787.8 459C825.3 456 862.7 454 881.3 453L900 452L900 601L881.3 601C862.7 601 825.3 601 787.8 601C750.3 601 712.7 601 675.2 601C637.7 601 600.3 601 562.8 601C525.3 601 487.7 601 450.2 601C412.7 601 375.3 601 337.8 601C300.3 601 262.7 601 225.2 601C187.7 601 150.3 601 112.8 601C75.3 601 37.7 601 18.8 601L0 601Z" fill="#8c008f"></path><path d="M0 462L18.8 466C37.7 470 75.3 478 112.8 482.5C150.3 487 187.7 488 225.2 486.2C262.7 484.3 300.3 479.7 337.8 478.8C375.3 478 412.7 481 450.2 478.5C487.7 476 525.3 468 562.8 465.3C600.3 462.7 637.7 465.3 675.2 468.2C712.7 471 750.3 474 787.8 473C825.3 472 862.7 467 881.3 464.5L900 462L900 601L881.3 601C862.7 601 825.3 601 787.8 601C750.3 601 712.7 601 675.2 601C637.7 601 600.3 601 562.8 601C525.3 601 487.7 601 450.2 601C412.7 601 375.3 601 337.8 601C300.3 601 262.7 601 225.2 601C187.7 601 150.3 601 112.8 601C75.3 601 37.7 601 18.8 601L0 601Z" fill="#aa0094"></path><path d="M0 507L18.8 508C37.7 509 75.3 511 112.8 510.2C150.3 509.3 187.7 505.7 225.2 504.2C262.7 502.7 300.3 503.3 337.8 503C375.3 502.7 412.7 501.3 450.2 499.2C487.7 497 525.3 494 562.8 496.3C600.3 498.7 637.7 506.3 675.2 508.2C712.7 510 750.3 506 787.8 502.8C825.3 499.7 862.7 497.3 881.3 496.2L900 495L900 601L881.3 601C862.7 601 825.3 601 787.8 601C750.3 601 712.7 601 675.2 601C637.7 601 600.3 601 562.8 601C525.3 601 487.7 601 450.2 601C412.7 601 375.3 601 337.8 601C300.3 601 262.7 601 225.2 601C187.7 601 150.3 601 112.8 601C75.3 601 37.7 601 18.8 601L0 601Z" fill="#c70098"></path><path d="M0 539L18.8 538.8C37.7 538.7 75.3 538.3 112.8 536.7C150.3 535 187.7 532 225.2 532.8C262.7 533.7 300.3 538.3 337.8 538.5C375.3 538.7 412.7 534.3 450.2 535C487.7 535.7 525.3 541.3 562.8 542.8C600.3 544.3 637.7 541.7 675.2 541.5C712.7 541.3 750.3 543.7 787.8 540.5C825.3 537.3 862.7 528.7 881.3 524.3L900 520L900 601L881.3 601C862.7 601 825.3 601 787.8 601C750.3 601 712.7 601 675.2 601C637.7 601 600.3 601 562.8 601C525.3 601 487.7 601 450.2 601C412.7 601 375.3 601 337.8 601C300.3 601 262.7 601 225.2 601C187.7 601 150.3 601 112.8 601C75.3 601 37.7 601 18.8 601L0 601Z" fill="#e30099"></path><path d="M0 556L18.8 556.5C37.7 557 75.3 558 112.8 560.8C150.3 563.7 187.7 568.3 225.2 569.3C262.7 570.3 300.3 567.7 337.8 564.7C375.3 561.7 412.7 558.3 450.2 558C487.7 557.7 525.3 560.3 562.8 562.8C600.3 565.3 637.7 567.7 675.2 568.5C712.7 569.3 750.3 568.7 787.8 565.7C825.3 562.7 862.7 557.3 881.3 554.7L900 552L900 601L881.3 601C862.7 601 825.3 601 787.8 601C750.3 601 712.7 601 675.2 601C637.7 601 600.3 601 562.8 601C525.3 601 487.7 601 450.2 601C412.7 601 375.3 601 337.8 601C300.3 601 262.7 601 225.2 601C187.7 601 150.3 601 112.8 601C75.3 601 37.7 601 18.8 601L0 601Z" fill="#ff0099"></path></svg>